<?xml version="1.0" encoding="UTF-8"?>
<!DOCTYPE svg PUBLIC "-//W3C//DTD SVG 1.0//EN" "http://www.w3.org/TR/2001/REC-SVG-20010904/DTD/svg10.dtd">
<!-- Creator: CorelDRAW 2020 (64 Bit) -->
<svg xmlns="http://www.w3.org/2000/svg" xml:space="preserve" width="297mm" height="297mm" version="1.0" shape-rendering="geometricPrecision" text-rendering="geometricPrecision" image-rendering="optimizeQuality" fill-rule="evenodd" clip-rule="evenodd"
viewBox="0 0 29700000 29700000"
 xmlns:xlink="http://www.w3.org/1999/xlink"
 xmlns:xodm="http://www.corel.com/coreldraw/odm/2003">
 <defs>
   <linearGradient id="id0" gradientUnits="userSpaceOnUse" x1="1201580" y1="15219630" x2="28470400" y2="15219630">
    <stop offset="0" stop-opacity="1" stop-color="#CDD1D0"/>
    <stop offset="1" stop-opacity="1" stop-color="white"/>
   </linearGradient>
    <clipPath id="id1">
     <path d="M1505330 4045140l25673870 -92020 0 15482490 -25673870 92020 0 -15482490z"/>
    </clipPath>
   <linearGradient id="id2" gradientUnits="userSpaceOnUse" x1="3290030" y1="11780000" x2="25416200" y2="11780000">
    <stop offset="0" stop-opacity="1" stop-color="#00426D"/>
    <stop offset="0.25098" stop-opacity="1" stop-color="#2A74A8"/>
    <stop offset="0.478431" stop-opacity="1" stop-color="#7BC1F2"/>
    <stop offset="0.721569" stop-opacity="1" stop-color="#4B86AD"/>
    <stop offset="1" stop-opacity="1" stop-color="#00426D"/>
   </linearGradient>
    <clipPath id="id3">
     <path d="M2788730 17189950l22171930 -57520 0 4151480 -22171930 57520 0 -4151480z"/>
    </clipPath>
   <linearGradient id="id4" gradientUnits="userSpaceOnUse" x1="3274340" y1="19264440" x2="24187970" y2="19264440">
    <stop offset="0" stop-opacity="1" stop-color="#A6C1D8"/>
    <stop offset="1" stop-opacity="1" stop-color="white"/>
   </linearGradient>
    <clipPath id="id5">
     <path d="M22258120 16303570l6293160 84420 0 7803510 -6293160 -84420 0 -7803510z"/>
    </clipPath>
   <linearGradient id="id6" gradientUnits="userSpaceOnUse" x1="22984310" y1="20279950" x2="27825200" y2="20279950">
    <stop offset="0" stop-opacity="1" stop-color="#003458"/>
    <stop offset="0.470588" stop-opacity="1" stop-color="#125E91"/>
    <stop offset="1" stop-opacity="1" stop-color="#00426D"/>
   </linearGradient>
    <clipPath id="id7">
     <path d="M3254890 20493630l20068630 0 0 2881500 -20068630 0 0 -2881500z"/>
    </clipPath>
    <clipPath id="id8">
     <path d="M8375740 24154600l11948610 22020 0 1728340 -11948610 -22020 0 -1728340z"/>
    </clipPath>
    <clipPath id="id9">
     <path d="M8097980 20332680l12378520 -47130 0 4555240 -12378520 47130 0 -4555240z"/>
    </clipPath>
   <linearGradient id="id10" gradientUnits="userSpaceOnUse" x1="8617600" y1="22608330" x2="20087410" y2="22608330">
    <stop offset="0" stop-opacity="1" stop-color="#A6C1D8"/>
    <stop offset="1" stop-opacity="1" stop-color="white"/>
   </linearGradient>
   <linearGradient id="id11" gradientUnits="userSpaceOnUse" x1="25391410" y1="18439000" x2="26354800" y2="18439000">
    <stop offset="0" stop-opacity="1" stop-color="#E6E7E6"/>
    <stop offset="1" stop-opacity="1" stop-color="white"/>
   </linearGradient>
    <clipPath id="id12">
     <path d="M24330020 17644730l1264930 0 -22930 1701090 -1264930 0 22930 -1701090z"/>
    </clipPath>
   <linearGradient id="id13" gradientUnits="userSpaceOnUse" x1="10072080" y1="12809980" x2="19487010" y2="12809980">
    <stop offset="0" stop-opacity="1" stop-color="#E1F3FF"/>
    <stop offset="0.490196" stop-opacity="1" stop-color="white"/>
    <stop offset="1" stop-opacity="1" stop-color="#E0F3FF"/>
   </linearGradient>
    <clipPath id="id14">
     <path d="M9800560 24597250l9098470 0 0 843890 -9098470 0 0 -843890z"/>
    </clipPath>
    <clipPath id="id15">
     <path d="M10742720 11169080l5950480 0 0 3385500 -5950480 0 0 -3385500z"/>
    </clipPath>
   <linearGradient id="id16" gradientUnits="userSpaceOnUse" x1="11150795" y1="12861985" x2="16301915" y2="12861985">
    <stop offset="0" stop-opacity="1" stop-color="#02395F"/>
    <stop offset="0.490196" stop-opacity="1" stop-color="#054977"/>
    <stop offset="1" stop-opacity="1" stop-color="#034773"/>
   </linearGradient>
   <linearGradient id="id17" gradientUnits="userSpaceOnUse" x1="11150795" y1="12861985" x2="16301915" y2="12861985">
    <stop offset="0" stop-opacity="1" stop-color="#02395F"/>
    <stop offset="0.490196" stop-opacity="1" stop-color="#054977"/>
    <stop offset="1" stop-opacity="1" stop-color="#034773"/>
   </linearGradient>
    <clipPath id="id18">
     <path d="M13367540 18329670l1969680 0 0 2075930 -1969680 0 0 -2075930z"/>
    </clipPath>
   <linearGradient id="id19" gradientUnits="userSpaceOnUse" x1="13594810" y1="19367640" x2="15109950" y2="19367640">
    <stop offset="0" stop-opacity="1" stop-color="#0F3052"/>
    <stop offset="0.509804" stop-opacity="1" stop-color="#11416C"/>
    <stop offset="1" stop-opacity="1" stop-color="#114775"/>
   </linearGradient>
   <linearGradient id="id20" gradientUnits="userSpaceOnUse" x1="24971470" y1="21383580" x2="25820630" y2="21383580">
    <stop offset="0" stop-opacity="1" stop-color="#0F3052"/>
    <stop offset="0.509804" stop-opacity="1" stop-color="#11416C"/>
    <stop offset="1" stop-opacity="1" stop-color="#114775"/>
   </linearGradient>
 </defs>
 <g id="Camada_x0020_1">
  <metadata id="CorelCorpID_0Corel-Layer"/>
  <circle fill="url(#id0)" stroke="#D4D2D3" stroke-width="7620" stroke-miterlimit="10" cx="14835989" cy="15219626" r="13634413"/>
  <g id="_1187278272">
   <g clip-path="url(#id1)">
    <image x="1505330" y="3953120" width="25673870" height="15574510" xlink:href="ControlelrSecurity_Images\ControlelrSecurity_ImgID1.jpg"/>
   </g>
  </g>
  <path fill="url(#id2)" d="M3300010 15943920c145470,-75520 1499010,-77100 1783880,-93790 1405640,-82300 2841010,-226110 4225770,-456920 268200,-44700 545550,-112040 812490,-147320l-300 -4698350c-10,-383780 -25350,-544040 219200,-736450 189240,-148900 563170,-99460 831620,-99460l4727910 0c308740,0 624440,-6540 932280,-350 716680,14440 556290,764880 556290,1361590 0,317940 0,635880 0,953820 200610,-131280 1909940,-1959760 2072310,-2039190l-3770 5597640c-16860,72700 4370,32520 -37350,75990 34180,38380 -75800,67750 61760,20030 28620,-580820 -28260,-4564970 16220,-4694620 6640,-19400 320590,-359500 367550,-414190l369480 -417850c790660,-913690 1753290,-2694540 1985670,-4320580 -565700,30200 -1209260,3010 -1783560,3010l-16332760 0c-883480,0 -801180,-38540 -801180,1009470l0 7259010c0,602400 20210,1240490 -3510,1838510zm16120330 -282790c-28000,-62230 -53710,-72660 -117180,-134760 -50000,-48890 -82170,-81890 -131740,-131100 -89850,-89160 -161640,-160970 -251390,-250050l-1525780 -1528020c-35490,364930 -5120,893480 -5120,1276200 0,1307990 -30340,1050770 -2825740,1050770l-3869320 700c-497580,-2530 -573330,-325280 -571920,-698980 -266940,35280 -544290,102620 -812490,147320 -1384760,230810 -2820130,374620 -4225770,456920 -284870,16690 -1638410,18270 -1783880,93790l-9980 1740070c842270,-34840 1755450,-2900 2605540,-2900 5982800,0 12001870,24360 17980370,-30 51470,-220 121550,-5410 168960,-3940 155370,4790 119900,18460 143070,57670l92630 -145920c257200,-316230 719350,-479500 1135600,-484570 -39300,-181920 -14770,-10297360 -11840,-10807360 2000,-348550 -95070,-465600 -453810,-465050 -890170,1400 -1858940,-17100 -2729530,2030 -232380,1626040 -1195010,3406890 -1985670,4320580l-369480 417850c-46960,54690 -360910,394790 -367550,414190 -44480,129650 12400,4113800 -16220,4694620 -137560,47720 -27580,18350 -61760,-20030zm-6399590 -3535010l-6700 315240 414790 5590c28060,-106840 27010,-630370 2240,-739910l-403260 -930 -7070 420010zm5740 1942290l414040 17400 760 -709240 -411670 -110 -3130 691950z"/>
  <g id="_1187304624">
   <g clip-path="url(#id3)">
    <image x="2788730" y="17132430" width="22171930" height="4209000" xlink:href="ControlelrSecurity_Images\ControlelrSecurity_ImgID2.jpg"/>
   </g>
  </g>
  <path fill="url(#id4)" d="M3587370 20861150c89220,-52600 10349000,-30360 12098310,-30360l6088960 8260c332370,0 913490,33940 1216320,-9350 480,-235810 -28610,-1066610 31320,-1226650 174170,-465170 618220,-376530 866730,-398490 22450,-279210 -21990,-582420 25610,-858780 31990,-185800 157970,-550080 273350,-610990 -23160,-39210 12300,-52880 -143070,-57680 -47420,-1460 -117500,3740 -168960,3960 -5978490,24380 -11997570,20 -17980370,20 -850100,0 -1763270,-31940 -2605540,2900 -28380,190110 -9520,2209230 -9820,2582020 -320,399800 7120,503850 307160,595140z"/>
  <g id="_1187305104">
   <g clip-path="url(#id5)">
    <image x="22258120" y="16303570" width="6293160" height="7887930" xlink:href="ControlelrSecurity_Images\ControlelrSecurity_ImgID3.jpg"/>
   </g>
  </g>
  <path fill="url(#id6)" d="M24187970 17734790c-115380,60910 -241360,425190 -273350,610990 -47600,276360 -3160,579570 -25610,858780 -248510,21960 -692560,-66680 -866730,398490 -59930,160040 -30840,990840 -31320,1226650l80 37050c1570,516020 170,1032270 170,1548310 0,311610 -86990,974170 550260,1024920 424900,33840 2522370,2160 3128220,2160 402010,0 966720,99290 1126050,-427100 47440,-156730 23680,-2747060 22380,-3131480 -2630,-772410 -677040,-656750 -898060,-679770 -53030,-697370 81400,-946360 -300320,-1490580 -223320,-318380 -622160,-596430 -1203530,-608920 -416250,5090 -878410,168360 -1135620,484580l-92620 145920z"/>
  <g id="_1187302416">
   <g clip-path="url(#id7)">
    <image x="3254890" y="20493630" width="20068630" height="2881500" xlink:href="ControlelrSecurity_Images\ControlelrSecurity_ImgID4.jpg"/>
   </g>
  </g>
  <path fill="#7A9FBD" d="M10632900 20856310c44400,60570 32060,170060 31200,245340l-300 1927950 7418430 6930 121730 6120 30 -2167200c152830,-35530 2052780,-12770 2376730,-12770 765700,0 1660540,-42550 2410320,4070l-80 -37050c-302830,43290 -883950,9350 -1216320,9350l-6088960 -8260c-1749310,0 -12009090,-22240 -12098310,30360l7045530 -4840z"/>
  <g id="_1187304720">
   <g clip-path="url(#id8)">
    <image x="8375740" y="24154600" width="11948610" height="1750360" xlink:href="ControlelrSecurity_Images\ControlelrSecurity_ImgID5.jpg"/>
   </g>
  </g>
  <path fill="#94B2CC" d="M20087410 24354400l-11469810 5950c-45880,7080 -20310,-32180 -42460,36610l370 1280720 11548090 6210 2720 -1286930c-20110,-62070 10010,-22580 -38910,-42560z"/>
  <g id="_1187282544">
   <g clip-path="url(#id9)">
    <image x="8097980" y="20285550" width="12378520" height="4602370" xlink:href="ControlelrSecurity_Images\ControlelrSecurity_ImgID6.jpg"/>
   </g>
  </g>
  <path fill="url(#id10)" d="M8617600 24360350l11469810 -5950 -2005180 -1317870 -7418430 -6930 300 -1927950c860,-75280 13200,-184770 -31200,-245340l0 2155710c-20260,86480 -939420,632590 -1004220,676880 -122680,83850 -948160,574430 -1011080,671450z"/>
  <path fill="#7A9FBD" d="M14188560 18613190c-1014640,225290 -657620,1729090 344120,1501790 349260,-79240 682830,-462410 569930,-938310 -86050,-362710 -451690,-666140 -914050,-563480z"/>
  <path fill="url(#id11)" d="M25427910 19209450l906230 20c44160,-345590 25630,-835620 -135220,-1099550 -101020,-165750 -462230,-510470 -793860,-429180 -4640,249780 -38920,1373450 22850,1528710z"/>
  <g id="_1187278608">
   <g clip-path="url(#id12)">
    <image x="24307090" y="17644730" width="1287860" height="1701090" xlink:href="ControlelrSecurity_Images\ControlelrSecurity_ImgID7.jpg"/>
   </g>
  </g>
  <path fill="#A6C1D8" d="M25427910 19209450c-61770,-155260 -27490,-1278930 -22850,-1528710 -406140,8290 -632900,181540 -796070,429210 -165340,250990 -174400,758200 -133910,1099490l952830 10z"/>
  <path fill="#FEFEFE" d="M25336100 20736960c-879850,201600 -568290,1287940 153370,1189290 303750,-41520 556630,-325780 513460,-680760 -34540,-284040 -342330,-582870 -666830,-508530z"/>
  <path fill="#FEFEFE" d="M25702490 22096220c95550,51350 736370,228260 874030,248770 77380,-158490 228640,-266270 321960,-608380 88080,-322910 62470,-509300 9470,-828340 -164890,83560 -1143180,1146000 -1205460,1187950z"/>
  <path fill="#FEFEFE" d="M26231500 21436210c91360,-42850 586360,-541490 638610,-621000 -113510,-459370 -598000,-900330 -1088430,-1008250l449820 1629250z"/>
  <path fill="#FEFEFE" d="M23910730 21711660l1196420 -1189770 -878700 -248120c-104400,203630 -209080,238620 -318310,623580 -69830,246080 -71450,564960 590,814310z"/>
  <path fill="#FEFEFE" d="M24316400 20211430c152940,75070 596100,171310 797340,226410 252840,69240 561540,168360 817340,217010l-236890 -873160c-317370,-29400 -535050,-24070 -821780,72130 -190680,63990 -469430,237480 -556010,357610z"/>
  <path fill="#FEFEFE" d="M23942130 21818100c153260,442050 563080,885890 1057810,986250l-420120 -1618270c-89750,41100 -206370,193950 -327940,315500 -91210,91190 -233680,213530 -309750,316520z"/>
  <path fill="#FEFEFE" d="M25087460 22821240c484740,158450 1228430,-150890 1393820,-406180l-1613290 -457380 219470 863560z"/>
  <path fill="url(#id13)" d="M10073150 15240900c-1430,376680 74920,702010 576490,704560l3900200 -710c2817710,0 2848300,259290 2848300,-1059160 0,-385760 -30620,-918540 5160,-1286390l1537960 1540230c90470,89780 162830,162170 253390,252050 49970,49600 82390,82850 132790,132150 63980,62580 89910,73100 118110,135830 42060,-43810 20660,-3330 37660,-76600l3800 -5642320c-163660,80050 -1886650,1923130 -2088850,2055470 0,-320490 0,-640970 0,-961450 0,-601460 161660,-1357900 -560730,-1372450 -310310,-6250 -628510,350 -939730,350l-4765650 0c-270600,0 -647520,-49840 -838270,100250 -246500,193950 -220950,355490 -220930,742340l300 4735850z"/>
  <g id="_1187306544">
   <g clip-path="url(#id14)">
    <image x="9800560" y="24597250" width="9098470" height="843890" xlink:href="ControlelrSecurity_Images\ControlelrSecurity_ImgID8.jpg"/>
   </g>
  </g>
  <path fill="white" fill-rule="nonzero" d="M10063910 25339960c-57520,0 -98920,-14290 -124320,-42990 -25410,-28580 -38110,-74130 -38110,-136660l0 -61550 124570 0 0 78770c0,14530 2200,25890 6600,34200 4390,8180 12090,12330 23080,12330 11360,0 19290,-3420 23810,-10010 4400,-6720 6600,-17710 6600,-32980 0,-19290 -1960,-35410 -5740,-48480 -3790,-12950 -10510,-25400 -19910,-37250 -9400,-11720 -22470,-25520 -39200,-41280l-56420 -53610c-42260,-39940 -63390,-85490 -63390,-136780 0,-53620 12460,-94530 37370,-122620 24920,-28210 61070,-42260 108210,-42260 57760,0 98800,15390 122980,46170 24180,30770 36270,77550 36270,140200l-128110 0 0 -43230c0,-8670 -2440,-15270 -7330,-20030 -4880,-4760 -11480,-7210 -19780,-7210 -10020,0 -17350,2810 -21990,8430 -4760,5620 -7080,12820 -7080,21620 0,8790 2440,18440 7210,28700 4760,10250 14160,21980 28210,35410l72660 69740c14540,13800 27970,28450 40060,43840 12210,15390 21980,33220 29430,53610 7330,20400 10990,45310 10990,74620 0,59110 -10870,105520 -32730,138980 -21730,33590 -59720,50320 -113940,50320z"/>
  <polygon id="1" fill="white" fill-rule="nonzero" points="10441230,25334220 10441230,24704530 10693050,24704530 10693050,24826170 10569220,24826170 10569220,24948910 10688040,24948910 10688040,25067250 10569220,25067250 10569220,25211480 10701230,25211480 10701230,25334220 "/>
  <path id="2" fill="white" fill-rule="nonzero" d="M11078180 25339960c-45550,0 -82310,-14170 -110030,-42620 -27850,-28340 -41650,-68030 -41650,-119080l0 -290540c0,-61060 12090,-107830 36270,-140320 24180,-32360 63630,-48610 118220,-48610 29800,0 56420,5500 79630,16490 23200,10870 41520,27360 54950,49100 13320,21860 20030,49340 20030,82550l0 108700 -125300 0 0 -92940c0,-18930 -2320,-31630 -7080,-38100 -4770,-6600 -12220,-9900 -22230,-9900 -11720,0 -19540,4280 -23570,12700 -4030,8430 -6110,19790 -6110,33830l0 315210c0,17470 2570,29680 7700,36880 5130,7090 12450,10750 21980,10750 10750,0 18320,-4390 22720,-13310 4390,-8790 6590,-20270 6590,-34320l0 -113450 126650 0 0 119190c0,55330 -13930,95510 -41770,120420 -27970,24910 -66930,37370 -117000,37370z"/>
  <path id="3" fill="white" fill-rule="nonzero" d="M11613160 25339960c-52510,0 -91100,-14780 -115900,-44210 -24790,-29430 -37240,-72790 -37240,-130060l0 -461160 122370 0 0 456150c0,10500 610,20640 1830,30290 1100,9640 3910,17580 8180,23690 4270,6230 11240,9400 20760,9400 9770,0 16860,-3050 21130,-9160 4270,-6100 6960,-14040 8060,-23810 980,-9770 1590,-19910 1590,-30410l0 -456150 122370 0 0 461160c0,57270 -12460,100630 -37250,130060 -24790,29430 -63380,44210 -115900,44210z"/>
  <path id="4" fill="white" fill-rule="nonzero" d="M12003300 25334220l0 -629690 193200 0c32120,0 56420,7330 72910,21990 16490,14650 27480,35170 33100,61550 5620,26380 8420,57280 8420,92820 0,34310 -4390,61790 -13060,82310 -8670,20520 -25040,34680 -49220,42500 19780,4150 33710,13920 41770,29550 7940,15640 11970,35910 11970,60700l0 238270 -124210 0 0 -246570c0,-18320 -3780,-29680 -11230,-34080 -7580,-4520 -19670,-6710 -36270,-6710l0 287360 -127380 0zm127990 -396420l30410 0c17460,0 26130,-18930 26130,-56910 0,-24550 -1830,-40670 -5740,-48240 -3790,-7700 -10870,-11480 -21370,-11480l-29430 0 0 116630z"/>
  <polygon id="5" fill="white" fill-rule="nonzero" points="12535350,25334220 12535350,24704530 12656990,24704530 12656990,25334220 "/>
  <polygon id="6" fill="white" fill-rule="nonzero" points="12949670,25334220 12949670,24825440 12874930,24825440 12874930,24704530 13150440,24704530 13150440,24825440 13075580,24825440 13075580,25334220 "/>
  <polygon id="7" fill="white" fill-rule="nonzero" points="13450330,25334220 13450330,25127090 13349700,24704530 13474640,24704530 13509690,24917770 13544740,24704530 13669310,24704530 13569040,25127090 13569040,25334220 "/>
  <path id="8" fill="white" fill-rule="nonzero" d="M14200370 25339700c-43510,0 -78620,-13530 -105100,-40710 -26600,-27060 -39780,-64980 -39780,-113740l0 -277510c0,-58330 11550,-103010 34650,-134040 23090,-30910 60770,-46430 112920,-46430 28460,0 53890,5250 76060,15750 22160,10380 39660,26130 52490,46900 12710,20880 19130,47120 19130,78850l0 103820 -119690 0 0 -88770c0,-18080 -2210,-30210 -6760,-36390 -4550,-6300 -11670,-9450 -21230,-9450 -11200,0 -18670,4080 -22520,12130 -3850,8050 -5830,18900 -5830,32310l0 301080c0,16690 2450,28350 7350,35230 4900,6770 11900,10270 21000,10270 10260,0 17500,-4200 21690,-12720 4200,-8400 6300,-19360 6300,-32780l0 -108370 120970 0 0 113860c0,52840 -13290,91220 -39890,115020 -26720,23790 -63930,35690 -111760,35690z"/>
  <path id="9" fill="white" fill-rule="nonzero" d="M14715810 25339700c-48060,0 -84810,-14580 -110240,-43630 -25430,-29040 -38030,-71040 -38030,-125860l0 -285690c0,-51560 12480,-90640 37680,-117240 25200,-26710 62060,-40010 110590,-40010 48520,0 85390,13300 110580,40010 25200,26600 37680,65680 37680,117240l0 285690c0,54820 -12590,96820 -38030,125860 -25430,29050 -62170,43630 -110230,43630zm1050 -110700c18200,0 27290,-17730 27290,-52960l0 -293620c0,-29630 -8860,-44440 -26590,-44440 -20070,0 -30100,15160 -30100,45490l0 293150c0,18780 2220,32080 6770,40250 4660,8050 12130,12130 22630,12130z"/>
  <polygon id="10" fill="white" fill-rule="nonzero" points="15092880,25334220 15092880,24732760 15216540,24732760 15271950,25020770 15271950,24732760 15388130,24732760 15388130,25334220 15270550,25334220 15210350,25033490 15210350,25334220 "/>
  <polygon id="11" fill="white" fill-rule="nonzero" points="15673170,25334220 15673170,24848240 15601780,24848240 15601780,24732760 15864950,24732760 15864950,24848240 15793440,24848240 15793440,25334220 "/>
  <path id="12" fill="white" fill-rule="nonzero" d="M16078600 25334220l0 -601460 184550 0c30680,0 53890,6990 69640,20990 15750,14000 26250,33600 31610,58800 5370,25190 8050,54710 8050,88650 0,32780 -4200,59030 -12480,78630 -8280,19590 -23910,33130 -47010,40590 18900,3970 32200,13300 39900,28230 7580,14930 11430,34300 11430,57980l0 227590 -118640 0 0 -235520c0,-17500 -3620,-28350 -10730,-32550 -7230,-4320 -18780,-6420 -34650,-6420l0 274490 -121670 0zm122260 -378660l29040 0c16680,0 24970,-18080 24970,-54360 0,-23440 -1750,-38840 -5490,-46080 -3610,-7340 -10380,-10960 -20410,-10960l-28110 0 0 111400z"/>
  <path id="13" fill="white" fill-rule="nonzero" d="M16735770 25339700c-48060,0 -84810,-14580 -110240,-43630 -25430,-29040 -38030,-71040 -38030,-125860l0 -285690c0,-51560 12480,-90640 37680,-117240 25200,-26710 62060,-40010 110590,-40010 48520,0 85390,13300 110580,40010 25200,26600 37680,65680 37680,117240l0 285690c0,54820 -12590,96820 -38030,125860 -25430,29050 -62170,43630 -110230,43630zm1050 -110700c18200,0 27290,-17730 27290,-52960l0 -293620c0,-29630 -8860,-44440 -26590,-44440 -20070,0 -30100,15160 -30100,45490l0 293150c0,18780 2220,32080 6770,40250 4660,8050 12130,12130 22630,12130z"/>
  <polygon id="14" fill="white" fill-rule="nonzero" points="17112840,25334220 17112840,24732760 17233110,24732760 17233110,25231680 17356770,25231680 17356770,25334220 "/>
  <polygon id="15" fill="white" fill-rule="nonzero" points="17571230,25334220 17571230,24732760 17691500,24732760 17691500,25231680 17815160,25231680 17815160,25334220 "/>
  <polygon id="16" fill="white" fill-rule="nonzero" points="18029620,25334220 18029620,24732760 18270160,24732760 18270160,24848940 18151880,24848940 18151880,24966180 18265380,24966180 18265380,25079220 18151880,25079220 18151880,25216980 18277980,25216980 18277980,25334220 "/>
  <path id="17" fill="white" fill-rule="nonzero" d="M18497920 25334220l0 -601460 184550 0c30680,0 53890,6990 69640,20990 15750,14000 26250,33600 31610,58800 5370,25190 8050,54710 8050,88650 0,32780 -4200,59030 -12480,78630 -8280,19590 -23910,33130 -47010,40590 18900,3970 32200,13300 39900,28230 7580,14930 11430,34300 11430,57980l0 227590 -118640 0 0 -235520c0,-17500 -3620,-28350 -10730,-32550 -7230,-4320 -18780,-6420 -34650,-6420l0 274490 -121670 0zm122260 -378660l29040 0c16680,0 24970,-18080 24970,-54360 0,-23440 -1750,-38840 -5490,-46080 -3610,-7340 -10380,-10960 -20410,-10960l-28110 0 0 111400z"/>
  <path id="18" fill="none" fill-rule="nonzero" stroke="#E0E0E0" stroke-width="7620" stroke-miterlimit="10" d="M10063910 25339960c-57520,0 -98920,-14290 -124320,-42990 -25410,-28580 -38110,-74130 -38110,-136660l0 -61550 124570 0 0 78770c0,14530 2200,25890 6600,34200 4390,8180 12090,12330 23080,12330 11360,0 19290,-3420 23810,-10010 4400,-6720 6600,-17710 6600,-32980 0,-19290 -1960,-35410 -5740,-48480 -3790,-12950 -10510,-25400 -19910,-37250 -9400,-11720 -22470,-25520 -39200,-41280l-56420 -53610c-42260,-39940 -63390,-85490 -63390,-136780 0,-53620 12460,-94530 37370,-122620 24920,-28210 61070,-42260 108210,-42260 57760,0 98800,15390 122980,46170 24180,30770 36270,77550 36270,140200l-128110 0 0 -43230c0,-8670 -2440,-15270 -7330,-20030 -4880,-4760 -11480,-7210 -19780,-7210 -10020,0 -17350,2810 -21990,8430 -4760,5620 -7080,12820 -7080,21620 0,8790 2440,18440 7210,28700 4760,10250 14160,21980 28210,35410l72660 69740c14540,13800 27970,28450 40060,43840 12210,15390 21980,33220 29430,53610 7330,20400 10990,45310 10990,74620 0,59110 -10870,105520 -32730,138980 -21730,33590 -59720,50320 -113940,50320z"/>
  <polygon id="19" fill="none" fill-rule="nonzero" stroke="#E0E0E0" stroke-width="7620" stroke-miterlimit="10" points="10441230,25334220 10441230,24704530 10693050,24704530 10693050,24826170 10569220,24826170 10569220,24948910 10688040,24948910 10688040,25067250 10569220,25067250 10569220,25211480 10701230,25211480 10701230,25334220 "/>
  <path id="20" fill="none" fill-rule="nonzero" stroke="#E0E0E0" stroke-width="7620" stroke-miterlimit="10" d="M11078180 25339960c-45550,0 -82310,-14170 -110030,-42620 -27850,-28340 -41650,-68030 -41650,-119080l0 -290540c0,-61060 12090,-107830 36270,-140320 24180,-32360 63630,-48610 118220,-48610 29800,0 56420,5500 79630,16490 23200,10870 41520,27360 54950,49100 13320,21860 20030,49340 20030,82550l0 108700 -125300 0 0 -92940c0,-18930 -2320,-31630 -7080,-38100 -4770,-6600 -12220,-9900 -22230,-9900 -11720,0 -19540,4280 -23570,12700 -4030,8430 -6110,19790 -6110,33830l0 315210c0,17470 2570,29680 7700,36880 5130,7090 12450,10750 21980,10750 10750,0 18320,-4390 22720,-13310 4390,-8790 6590,-20270 6590,-34320l0 -113450 126650 0 0 119190c0,55330 -13930,95510 -41770,120420 -27970,24910 -66930,37370 -117000,37370z"/>
  <path id="21" fill="none" fill-rule="nonzero" stroke="#E0E0E0" stroke-width="7620" stroke-miterlimit="10" d="M11613160 25339960c-52510,0 -91100,-14780 -115900,-44210 -24790,-29430 -37240,-72790 -37240,-130060l0 -461160 122370 0 0 456150c0,10500 610,20640 1830,30290 1100,9640 3910,17580 8180,23690 4270,6230 11240,9400 20760,9400 9770,0 16860,-3050 21130,-9160 4270,-6100 6960,-14040 8060,-23810 980,-9770 1590,-19910 1590,-30410l0 -456150 122370 0 0 461160c0,57270 -12460,100630 -37250,130060 -24790,29430 -63380,44210 -115900,44210z"/>
  <path id="22" fill="none" fill-rule="nonzero" stroke="#E0E0E0" stroke-width="7620" stroke-miterlimit="10" d="M12003300 25334220l0 -629690 193200 0c32120,0 56420,7330 72910,21990 16490,14650 27480,35170 33100,61550 5620,26380 8420,57280 8420,92820 0,34310 -4390,61790 -13060,82310 -8670,20520 -25040,34680 -49220,42500 19780,4150 33710,13920 41770,29550 7940,15640 11970,35910 11970,60700l0 238270 -124210 0 0 -246570c0,-18320 -3780,-29680 -11230,-34080 -7580,-4520 -19670,-6710 -36270,-6710l0 287360 -127380 0zm127990 -396420l30410 0c17460,0 26130,-18930 26130,-56910 0,-24550 -1830,-40670 -5740,-48240 -3790,-7700 -10870,-11480 -21370,-11480l-29430 0 0 116630z"/>
  <polygon id="23" fill="none" fill-rule="nonzero" stroke="#E0E0E0" stroke-width="7620" stroke-miterlimit="10" points="12535350,25334220 12535350,24704530 12656990,24704530 12656990,25334220 "/>
  <polygon id="24" fill="none" fill-rule="nonzero" stroke="#E0E0E0" stroke-width="7620" stroke-miterlimit="10" points="12949670,25334220 12949670,24825440 12874930,24825440 12874930,24704530 13150440,24704530 13150440,24825440 13075580,24825440 13075580,25334220 "/>
  <polygon id="25" fill="none" fill-rule="nonzero" stroke="#E0E0E0" stroke-width="7620" stroke-miterlimit="10" points="13450330,25334220 13450330,25127090 13349700,24704530 13474640,24704530 13509690,24917770 13544740,24704530 13669310,24704530 13569040,25127090 13569040,25334220 "/>
  <path id="26" fill="none" fill-rule="nonzero" stroke="#E0E0E0" stroke-width="7620" stroke-miterlimit="10" d="M14200370 25339700c-43510,0 -78620,-13530 -105100,-40710 -26600,-27060 -39780,-64980 -39780,-113740l0 -277510c0,-58330 11550,-103010 34650,-134040 23090,-30910 60770,-46430 112920,-46430 28460,0 53890,5250 76060,15750 22160,10380 39660,26130 52490,46900 12710,20880 19130,47120 19130,78850l0 103820 -119690 0 0 -88770c0,-18080 -2210,-30210 -6760,-36390 -4550,-6300 -11670,-9450 -21230,-9450 -11200,0 -18670,4080 -22520,12130 -3850,8050 -5830,18900 -5830,32310l0 301080c0,16690 2450,28350 7350,35230 4900,6770 11900,10270 21000,10270 10260,0 17500,-4200 21690,-12720 4200,-8400 6300,-19360 6300,-32780l0 -108370 120970 0 0 113860c0,52840 -13290,91220 -39890,115020 -26720,23790 -63930,35690 -111760,35690z"/>
  <path id="27" fill="none" fill-rule="nonzero" stroke="#E0E0E0" stroke-width="7620" stroke-miterlimit="10" d="M14715810 25339700c-48060,0 -84810,-14580 -110240,-43630 -25430,-29040 -38030,-71040 -38030,-125860l0 -285690c0,-51560 12480,-90640 37680,-117240 25200,-26710 62060,-40010 110590,-40010 48520,0 85390,13300 110580,40010 25200,26600 37680,65680 37680,117240l0 285690c0,54820 -12590,96820 -38030,125860 -25430,29050 -62170,43630 -110230,43630zm1050 -110700c18200,0 27290,-17730 27290,-52960l0 -293620c0,-29630 -8860,-44440 -26590,-44440 -20070,0 -30100,15160 -30100,45490l0 293150c0,18780 2220,32080 6770,40250 4660,8050 12130,12130 22630,12130z"/>
  <polygon id="28" fill="none" fill-rule="nonzero" stroke="#E0E0E0" stroke-width="7620" stroke-miterlimit="10" points="15092880,25334220 15092880,24732760 15216540,24732760 15271950,25020770 15271950,24732760 15388130,24732760 15388130,25334220 15270550,25334220 15210350,25033490 15210350,25334220 "/>
  <polygon id="29" fill="none" fill-rule="nonzero" stroke="#E0E0E0" stroke-width="7620" stroke-miterlimit="10" points="15673170,25334220 15673170,24848240 15601780,24848240 15601780,24732760 15864950,24732760 15864950,24848240 15793440,24848240 15793440,25334220 "/>
  <path id="30" fill="none" fill-rule="nonzero" stroke="#E0E0E0" stroke-width="7620" stroke-miterlimit="10" d="M16078600 25334220l0 -601460 184550 0c30680,0 53890,6990 69640,20990 15750,14000 26250,33600 31610,58800 5370,25190 8050,54710 8050,88650 0,32780 -4200,59030 -12480,78630 -8280,19590 -23910,33130 -47010,40590 18900,3970 32200,13300 39900,28230 7580,14930 11430,34300 11430,57980l0 227590 -118640 0 0 -235520c0,-17500 -3620,-28350 -10730,-32550 -7230,-4320 -18780,-6420 -34650,-6420l0 274490 -121670 0zm122260 -378660l29040 0c16680,0 24970,-18080 24970,-54360 0,-23440 -1750,-38840 -5490,-46080 -3610,-7340 -10380,-10960 -20410,-10960l-28110 0 0 111400z"/>
  <path id="31" fill="none" fill-rule="nonzero" stroke="#E0E0E0" stroke-width="7620" stroke-miterlimit="10" d="M16735770 25339700c-48060,0 -84810,-14580 -110240,-43630 -25430,-29040 -38030,-71040 -38030,-125860l0 -285690c0,-51560 12480,-90640 37680,-117240 25200,-26710 62060,-40010 110590,-40010 48520,0 85390,13300 110580,40010 25200,26600 37680,65680 37680,117240l0 285690c0,54820 -12590,96820 -38030,125860 -25430,29050 -62170,43630 -110230,43630zm1050 -110700c18200,0 27290,-17730 27290,-52960l0 -293620c0,-29630 -8860,-44440 -26590,-44440 -20070,0 -30100,15160 -30100,45490l0 293150c0,18780 2220,32080 6770,40250 4660,8050 12130,12130 22630,12130z"/>
  <polygon id="32" fill="none" fill-rule="nonzero" stroke="#E0E0E0" stroke-width="7620" stroke-miterlimit="10" points="17112840,25334220 17112840,24732760 17233110,24732760 17233110,25231680 17356770,25231680 17356770,25334220 "/>
  <polygon id="33" fill="none" fill-rule="nonzero" stroke="#E0E0E0" stroke-width="7620" stroke-miterlimit="10" points="17571230,25334220 17571230,24732760 17691500,24732760 17691500,25231680 17815160,25231680 17815160,25334220 "/>
  <polygon id="34" fill="none" fill-rule="nonzero" stroke="#E0E0E0" stroke-width="7620" stroke-miterlimit="10" points="18029620,25334220 18029620,24732760 18270160,24732760 18270160,24848940 18151880,24848940 18151880,24966180 18265380,24966180 18265380,25079220 18151880,25079220 18151880,25216980 18277980,25216980 18277980,25334220 "/>
  <path id="35" fill="none" fill-rule="nonzero" stroke="#E0E0E0" stroke-width="7620" stroke-miterlimit="10" d="M18497920 25334220l0 -601460 184550 0c30680,0 53890,6990 69640,20990 15750,14000 26250,33600 31610,58800 5370,25190 8050,54710 8050,88650 0,32780 -4200,59030 -12480,78630 -8280,19590 -23910,33130 -47010,40590 18900,3970 32200,13300 39900,28230 7580,14930 11430,34300 11430,57980l0 227590 -118640 0 0 -235520c0,-17500 -3620,-28350 -10730,-32550 -7230,-4320 -18780,-6420 -34650,-6420l0 274490 -121670 0zm122260 -378660l29040 0c16680,0 24970,-18080 24970,-54360 0,-23440 -1750,-38840 -5490,-46080 -3610,-7340 -10380,-10960 -20410,-10960l-28110 0 0 111400z"/>
  <g id="_1187305872">
   <g clip-path="url(#id15)">
    <image x="10742720" y="11169080" width="5950480" height="3385500" xlink:href="ControlelrSecurity_Images\ControlelrSecurity_ImgID9.jpg"/>
   </g>
  </g>
  <path fill="url(#id16)" fill-rule="nonzero" d="M11150790 14076710l1248170 0c497950,0 915950,-61060 1134030,-475420 126490,-248620 130850,-623720 -152660,-929030l-871600 0c196270,100310 152650,427440 -109770,427440 -149030,0 -231900,-104680 -253710,-209360 -26170,-135210 74150,-279150 244980,-279150l1243080 0 0 -985730 -1243080 0c-497950,0 -912310,74150 -1126030,492860 -126490,244260 -130850,588830 74150,881060l296590 0c13080,17450 26170,39250 39250,61060l-523400 0 0 1016270z"/>
  <path id="1" fill="url(#id17)" fill-rule="nonzero" d="M15006500 11560030c-715310,0 -1295420,580100 -1295420,1295420 0,715310 580110,1308490 1295420,1308490 702230,0 1277960,-575740 1295410,-1277960l-1077330 0c-13080,109040 -104680,191910 -218080,191910 -122130,0 -222450,-100320 -222450,-222440 0,-122130 100320,-222450 222450,-222450 113400,0 205000,82870 218080,191910l1077330 0c-17450,-702220 -593180,-1264880 -1295410,-1264880z"/>
  <g id="_876892832">
   <g clip-path="url(#id18)">
    <image x="13367540" y="18329670" width="1969680" height="2075930" xlink:href="ControlelrSecurity_Images\ControlelrSecurity_ImgID10.jpg"/>
   </g>
  </g>
  <path fill="url(#id19)" d="M13986640 18925030c-2610,880 830,-960 -2140,1540 -3640,4010 -6780,8340 -8380,10470 -4110,5450 -90,-150 -5210,3870 -53960,53070 -346030,411270 -376100,425800l440 9530c87540,68070 174240,195500 252040,276860 30470,34250 59920,68380 91950,101210 2640,2600 1880,2340 4620,4950 970,910 -280,-250 1750,1490l6690 7390c1810,2190 400,490 2410,2510 26900,31650 56620,63290 85470,93370 18190,19320 17200,13590 58500,13590 24430,0 126990,-3070 141280,2080 4520,29900 -5050,192620 4320,201600 2560,2230 5100,4420 7590,6730 16950,14560 91790,77400 92700,90310l10420 -10c570,-14670 89760,-89040 102740,-97610 2900,-26810 630,-125140 630,-164240 -10,-48580 -9090,-37650 126690,-37720 11060,-10 72650,2660 79610,-3160 22070,-17290 12730,-19160 15430,-14670 43380,-50110 83310,-108300 127140,-156290 5440,-5950 4950,-1230 6060,-8600 -46430,-2030 -97350,-210 -144280,-230 -47520,-20 -95050,-20 -142580,-70 -81090,-80 -69290,11240 -69280,-73930l-110 -107730c-100,-10710 -2500,-23390 7610,-25190 4670,-3870 -6200,-2390 6330,-3320l161250 0c0,-9840 -1760,-4900 -6120,-9360l-2390 -4020c-2680,-3030 -2300,-2120 -7330,-2120l0 -9510 -9510 0 0 -7910 -15840 -40 0 -7890 -9510 0 0 -9510 -7920 0 0 -7910 -17420 -40 0 -7880 -17320 -90 -110 -17330 -15760 -100 0 -7860 -17400 -60 -110 -17330 -17340 -100 0 -7870 -7980 0 10 -9510 -9540 0 0 -7870 -15740 -100 -110 -17330 -17420 -40 0 -7890 -7930 0 0 -9490 -17340 -100c0,-20120 -7970,4270 -7970,-15790l-9540 0 0 -9470c-7330,0 -5390,-710 -8180,-4590l-4140 -3600c-4430,-3230 -3520,-1840 -3520,-7650l-17430 -40 0 -9470 -9500 0 0 -7910 -15750 -100 -100 -17330 -17420 -50 0 -7880 -7920 0 10 -9510 -9520 0 0 -7910 -15840 -40 10 -7890 -9520 0 0 -9500 -7920 0 10 -7930 -9520 0 0 -7910 -14500 -40c-10,9930 -50,19860 -100,29790 -20,4800 70,9520 110,14300 80,11180 -410,11320 -3550,12800 -6340,8420 -8640,7390 -22790,7310l-94480 -250c-5430,-7560 -6980,-7730 -6960,-21450 70,-46900 -2220,-162530 540,-193100l4260 -2110c5140,-3370 9530,-2740 15840,-2690l45070 -160c0,-7630 1080,-5480 -7920,-5480l0 -9510c-10190,0 -7920,2270 -7920,-7920l-9420 0 -810 -7920 -14250 0c-2210,-2900 -2450,-2090 -2450,-9500 -9890,0 -5020,-3540 -10980,-7820l-2120 -1130c-3720,-3170 -2750,-2000 -2750,-6900l-9410 0 -820 -9500 -12670 0c-1610,-2130 -1000,-430 -2230,-3930 -310,-880 -210,-2960 -220,-3990l-9500 0c0,-10060 2130,-7930 -7830,-7930l-790 -9500 -14280 0 -1730 -4100c-2000,-4000 -730,-3820 -8640,-3820l0 -9510c-10190,0 -7920,2270 -7920,-7920l-9420 0 -800 -7920c-11150,0 -16030,-420 -25090,-2460 80,200 130,560 120,640 0,90 70,570 50,690 -40,280 -200,1300 -340,1640 -2280,5620 -350,840 -2550,3720 -10320,13530 5100,-10730 -2620,3660 -2460,4590 100,3470 -4750,6900 -3470,2460 -2250,-2580 -4260,2660 -120,-40 -250,-80 -370,-120 -3950,-1210 -3510,-730 -10450,5870zm10010 -6710c690,-3670 -4550,-3170 -270,3430 2010,-5240 1870,-2670 5340,-5130 4850,-3430 2290,-2310 4750,-6900 7720,-14390 -7700,9870 2620,-3660 2200,-2880 270,1900 2550,-3720 140,-340 300,-1360 340,-1640 20,-120 -50,-600 -50,-690 10,-80 -40,-440 -120,-640 9060,2040 13940,2460 25090,2460l800 7920 9420 0c0,10190 -2270,7920 7920,7920l0 9510c7910,0 6640,-180 8640,3820l1730 4100 14280 0 790 9500c9960,0 7830,-2130 7830,7930l9500 0c10,1030 -90,3110 220,3990 1230,3500 620,1800 2230,3930l12670 0 820 9500 9410 0c0,4900 -970,3730 2750,6900l2120 1130c5960,4280 1090,7820 10980,7820 0,7410 240,6600 2450,9500l14250 0 810 7920 9420 0c0,10190 -2270,7920 7920,7920l0 9510c9000,0 7920,-2150 7920,5480l-45070 160c-6310,-50 -10700,-680 -15840,2690 16940,-950 110490,-4220 118380,2320 6090,7340 2790,86610 2750,102550 -60,26510 2910,81680 -1700,104730 3140,-1480 3630,-1620 3550,-12800 -40,-4780 -130,-9500 -110,-14300 50,-9930 90,-19860 100,-29790l14500 40 0 7910 9520 0 -10 7930 7920 0 0 9500 9520 0 -10 7890 15840 40 0 7910 9520 0 -10 9510 7920 0 0 7880 17420 50 100 17330 15750 100 0 7910 9500 0 0 9470 17430 40c0,5810 -910,4420 3520,7650l4140 3600c2790,3880 850,4590 8180,4590l0 9470 9540 0c0,20060 7970,-4330 7970,15790l17340 100 0 9490 7930 0 0 7890 17420 40 110 17330 15740 100 0 7870 9540 0 -10 9510 7980 0 0 7870 17340 100 110 17330 17400 60 0 7860 15760 100 110 17330 17320 90 0 7880 17420 40 0 7910 7920 0 0 9510 9510 0 0 7890 15840 40 0 7910 9510 0 0 9510c5030,0 4650,-910 7330,2120l2390 4020c4360,4460 6120,-480 6120,9360l-161250 0c-12530,930 -1660,-550 -6330,3320l518890 -860c14210,-2160 109110,-117950 126410,-118940 -46990,-34560 -91510,-90210 -135180,-130970 -91360,-50 -182720,-110 -274070,-110 -14410,0 -227300,1460 -235970,-1500 -9900,-3400 -7460,-12770 -7360,-25020 380,-45350 -40,-90880 -60,-136250 0,-26600 -6600,-44230 23110,-44070 47710,270 323120,2280 337480,-1910 -540,-750 -16690,-18700 -18090,-19970 -19980,-18000 -93690,-105340 -107030,-127220 -16520,-2290 -42630,-760 -60200,-780 -19540,-10 -39080,-10 -58620,-30 -136040,-120 -116700,13590 -116810,-59500 -30,-19540 0,-39080 -20,-58620 -10,-12360 890,-114390 -700,-117230 -31670,-27390 -63160,-54920 -94930,-82220 -4790,-4660 -8130,-8080 -13960,-6220 -15990,5090 -89140,78160 -106280,88440 -320,35370 -330,70740 -380,106140 -30,17420 90,34860 90,52280 0,37490 4830,49590 -13900,50720 -2830,170 -6640,0 -9570,-10l-156900 -40c-14300,-120 -12310,-1310 -23990,10780 -14150,16290 -37790,33460 -39960,52550zm130520 569770c-9100,1450 -9470,1910 -10150,11570l700 185280c3390,11580 17380,10410 31660,10350 14470,-70 74450,1990 83770,-590 11490,-3170 8490,-19650 8470,-33290 -20,-13730 50,-27460 50,-41200 0,-27450 60,-54920 80,-82380 20,-36050 5490,-49660 -11480,-50300 -19440,-740 -92320,-1140 -103100,560z"/>
  <path fill="url(#id20)" d="M25191070 21135520c-1460,490 460,-540 -1200,860 -2040,2250 -3800,4670 -4690,5870 -2310,3050 -60,-80 -2930,2170 -30240,29740 -193930,230500 -210780,238640l250 5340c49060,38150 97650,109570 141260,155170 17070,19190 33570,38320 51530,56720 1480,1460 1050,1310 2590,2770 540,510 -160,-140 970,840l3760 4140c1010,1230 220,280 1350,1400 15070,17740 31730,35480 47900,52340 10190,10820 9640,7610 32780,7610 13690,0 71170,-1720 79180,1170 2540,16760 -2830,107950 2430,112990 1430,1250 2860,2470 4250,3770 9500,8160 51440,43380 51960,50610l5830 -10c320,-8220 50310,-49900 57580,-54700 1630,-15030 360,-70130 350,-92050 0,-27230 -5090,-21100 71010,-21140 6200,0 40720,1490 44620,-1770 12370,-9690 7130,-10740 8650,-8220 24310,-28090 46690,-60700 71250,-87590 3050,-3340 2780,-690 3400,-4820 -26020,-1140 -54560,-120 -80860,-130 -26640,-10 -53280,-20 -79910,-40 -45450,-50 -38840,6290 -38830,-41440l-60 -60380c-60,-6000 -1410,-13110 4260,-14110 2620,-2170 -3470,-1340 3550,-1860l90370 0c0,-5520 -980,-2750 -3430,-5250l-1340 -2250c-1500,-1700 -1290,-1190 -4110,-1190l0 -5330 -5320 0 0 -4430 -8880 -30 0 -4420 -5330 0 0 -5320 -4440 0 0 -4440 -9770 -20 0 -4420 -9700 -50 -60 -9710 -8830 -60 0 -4400 -9760 -40 -60 -9710 -9720 -60 0 -4410 -4470 0 0 -5320 -5340 0 0 -4420 -8820 -50 -60 -9720 -9770 -20 0 -4420 -4440 0 0 -5320 -9720 -60c0,-11270 -4470,2400 -4460,-8850l-5350 0 0 -5300c-4110,0 -3020,-400 -4590,-2570l-2320 -2020c-2480,-1810 -1970,-1030 -1970,-4290l-9770 -20 0 -5310 -5330 0 0 -4430 -8820 -60 -60 -9710 -9760 -30 0 -4420 -4440 0 10 -5320 -5340 0 0 -4440 -8880 -20 10 -4420 -5340 0 0 -5330 -4430 0 0 -4440 -5330 0 0 -4430 -8130 -30c-10,5570 -30,11130 -50,16700 -20,2690 30,5340 50,8020 50,6260 -230,6340 -1990,7170 -3550,4720 -4840,4140 -12770,4100l-52950 -150c-3040,-4230 -3910,-4330 -3900,-12020 40,-26280 -1240,-91090 300,-108220l2390 -1180c2880,-1890 5340,-1540 8880,-1510l25260 -90c0,-4280 600,-3070 -4440,-3070l0 -5330c-5710,0 -4440,1270 -4440,-4440l-5280 0 -450 -4440 -7990 0c-1240,-1620 -1380,-1170 -1380,-5330 -5540,0 -2810,-1980 -6150,-4380l-1190 -630c-2080,-1780 -1540,-1120 -1540,-3870l-5270 0 -460 -5320 -7100 0c-910,-1200 -560,-240 -1250,-2200 -180,-500 -120,-1660 -130,-2240l-5320 0c0,-5640 1200,-4440 -4390,-4440l-440 -5330 -8000 0 -970 -2300c-1120,-2240 -410,-2140 -4840,-2140l0 -5330c-5710,0 -4440,1270 -4440,-4440l-5280 0 -450 -4440c-6250,0 -8990,-230 -14060,-1370 40,110 70,310 70,360 -10,50 30,320 20,380 -20,160 -110,730 -190,920 -1280,3150 -190,470 -1420,2080 -5790,7590 2850,-6010 -1480,2060 -1370,2570 60,1940 -2660,3870 -1940,1370 -1260,-1450 -2380,1480 -70,-20 -140,-40 -210,-60 -2220,-680 -1970,-410 -5860,3290zm5610 -3760c390,-2060 -2550,-1780 -150,1920 1130,-2940 1050,-1500 2990,-2870 2720,-1930 1290,-1300 2660,-3870 4330,-8070 -4310,5530 1480,-2060 1230,-1610 140,1070 1420,-2080 80,-190 170,-760 190,-920 10,-60 -30,-330 -20,-380 0,-50 -30,-250 -70,-360 5070,1140 7810,1370 14060,1370l450 4440 5280 0c0,5710 -1270,4440 4440,4440l0 5330c4430,0 3720,-100 4840,2140l970 2300 8000 0 440 5330c5590,0 4390,-1200 4390,4440l5320 0c10,580 -50,1740 130,2240 690,1960 340,1000 1250,2200l7100 0 460 5320 5270 0c0,2750 -540,2090 1540,3870l1190 630c3340,2400 610,4380 6150,4380 0,4160 140,3710 1380,5330l7990 0 450 4440 5280 0c0,5710 -1270,4440 4440,4440l0 5330c5040,0 4440,-1210 4440,3070l-25260 90c-3540,-30 -6000,-380 -8880,1510 9490,-530 61930,-2370 66340,1300 3420,4110 1570,48540 1550,57470 -40,14860 1630,45780 -960,58700 1760,-830 2040,-910 1990,-7170 -20,-2680 -70,-5330 -50,-8020 20,-5570 40,-11130 50,-16700l8130 30 0 4430 5330 0 0 4440 4430 0 0 5330 5340 0 -10 4420 8880 20 0 4440 5340 0 -10 5320 4440 0 0 4420 9760 30 60 9710 8820 60 0 4430 5330 0 0 5310 9770 20c0,3260 -510,2480 1970,4290l2320 2020c1570,2170 480,2570 4590,2570l0 5300 5350 0c-10,11250 4460,-2420 4460,8850l9720 60 0 5320 4440 0 0 4420 9770 20 60 9720 8820 50 0 4420 5340 0 0 5320 4470 0 0 4410 9720 60 60 9710 9760 40 0 4400 8830 60 60 9710 9700 50 0 4420 9770 20 0 4440 4440 0 0 5320 5330 0 0 4420 8880 30 0 4430 5320 0 0 5330c2820,0 2610,-510 4110,1190l1340 2250c2450,2500 3430,-270 3430,5250l-90370 0c-7020,520 -930,-310 -3550,1860l290810 -490c7970,-1200 61160,-66100 70850,-66650 -26330,-19370 -51280,-50560 -75760,-73410 -51200,-30 -102400,-60 -153610,-60 -8070,0 -127390,820 -132240,-840 -5550,-1900 -4180,-7160 -4130,-14020 210,-25420 -20,-50930 -30,-76360 0,-14910 -3700,-24790 12950,-24700 26740,150 181090,1280 189140,-1070 -300,-420 -9350,-10480 -10140,-11190 -11200,-10090 -52510,-59040 -59980,-71300 -9260,-1290 -23900,-430 -33740,-440 -10960,-10 -21910,-10 -32860,-20 -76240,-70 -65400,7620 -65460,-33350 -20,-10950 0,-21900 -10,-32850 -10,-6930 500,-64110 -390,-65700 -17760,-15350 -35410,-30780 -53210,-46080 -2680,-2610 -4560,-4530 -7820,-3490 -8960,2860 -49960,43810 -59570,49570 -180,19820 -180,39650 -210,59490 -20,9760 50,19530 50,29300 0,21010 2710,27790 -7790,28420 -1590,100 -3720,0 -5370,0l-87930 -30c-8010,-60 -6900,-730 -13440,6050 -7930,9130 -21180,18750 -22400,29450zm73150 319330c-5100,810 -5310,1070 -5690,6480l400 103840c1900,6490 9730,5830 17740,5800 8110,-40 41720,1120 46950,-330 6440,-1780 4760,-11010 4740,-18660 -10,-7690 40,-15390 30,-23090 0,-15390 40,-30780 50,-46170 10,-20200 3070,-27830 -6430,-28190 -10900,-410 -51750,-640 -57790,320z"/>
 </g>
</svg>
